# AST/ASF file generated using VICON BodyLanguage
# -----------------------------------------------
:version 1.10
:name VICON
:units
  mass 1.0
  length 0.45
  angle deg
:documentation
   .ast/.asf automatically generated from VICON data using
   VICON BodyBuilder and BodyLanguage model FoxedUp or BRILLIANT.MOD
:root
   order TX TY TZ RX RY RZ
   axis XYZ
   position 0 0 0  
   orientation 0 0 0 
:bonedata
  begin
     id 1 
     name lhipjoint
     direction 0.645422 -0.672597 0.361999 
     length 2.39934 
     axis 0 0 0  XYZ
  end
  begin
     id 2 
     name lfemur
     direction 0.34202 -0.939693 0  
     length 6.58112  
     axis 0 0 20  XYZ
    dof rx ry rz
    limits (-160.0 20.0)
           (-70.0 70.0)
           (-60.0 70.0)
  end
  begin
     id 3 
     name ltibia
     direction 0.34202 -0.939693 0   
     length 7.02673   
     axis 0 0 20   XYZ
    dof rx
    limits (-10.0 170.0)
  end
  begin
     id 4 
     name lfoot
     direction 0.0835106 -0.229444 0.969733   
     length 2.08772   
     axis -90 7.62852e-016 20   XYZ
    dof rx rz
    limits (-45.0 90.0)
           (-70.0 20.0)
  end
  begin
     id 5 
     name ltoes
     direction 1.5358e-011 -4.21925e-011 1   
     length 1.04844   
     axis -90 7.62852e-016 20   XYZ
    dof rx
    limits (-90.0 20.0)
  end
  begin
     id 6 
     name rhipjoint
     direction -0.644959 -0.672941 0.362185   
     length 2.39812  
     axis 0 0 0  XYZ 
  end
  begin
     id 7 
     name rfemur
     direction -0.34202 -0.939693 0   
     length 6.67015   
     axis 0 0 -20   XYZ
    dof rx ry rz
    limits (-160.0 20.0)
           (-70.0 70.0)
           (-70.0 60.0)
  end
  begin
     id 8 
     name rtibia
     direction -0.34202 -0.939693 0   
     length 7.35735   
     axis 0 0 -20   XYZ
    dof rx
    limits (-10.0 170.0)
 end
 begin
     id 9 
     name rfoot
     direction -0.0670769 -0.184292 0.98058   
     length 2.25469  
     axis -90 -7.62852e-016 -20   XYZ
    dof rx rz
    limits (-45.0 90.0)
           (-20.0 70.0)
  end
  begin
     id 10 
     name rtoes
     direction -1.53575e-011 -4.21908e-011 1   
     length 1.13399   
     axis -90 -7.62852e-016 -20   XYZ
    dof rx
    limits (-90.0 20.0)
  end
  begin
     id 11 
     name lowerback
     direction -0.0188328 0.993434 -0.112847   
     length 2.27656   
     axis 0 0 0   XYZ
    dof rx ry rz
    limits (-20.0 45.0)
           (-30.0 30.0)
           (-30.0 30.0)
  end
  begin
     id 12 
     name upperback
     direction 0.00983139 0.998968 -0.04435   
     length 2.28631   
     axis 0 0 0   XYZ
    dof rx ry rz
    limits (-20.0 45.0)
           (-30.0 30.0)
           (-30.0 30.0)
  end
  begin
     id 13 
     name thorax
     direction 0.0177718 0.999807 0.00833073   
     length 2.30999   
     axis 0 0 0   XYZ
    dof rx ry rz
    limits (-20.0 45.0)
           (-30.0 30.0)
           (-30.0 30.0)
  end
  begin
     id 14 
     name lowerneck
     direction -0.0835025 0.993181 0.0813558   
     length 1.39447   
     axis 0 0 0   XYZ
    dof rx ry rz
    limits (-20.0 45.0)
           (-30.0 30.0)
           (-30.0 30.0)
  end
  begin
     id 15 
     name upperneck
     direction 0.210059 0.976535 0.0474817   
     length 1.39882   
     axis 0 0 0   XYZ
    dof rx ry rz
    limits (-20.0 45.0)
           (-30.0 30.0)
           (-30.0 30.0)
  end
  begin
     id 16
     name head
     direction 0.0780891 0.996944 -0.00207154  
     length 1.41828  
     axis 0 0 0   XYZ
    dof rx ry rz
    limits (-20.0 45.0)
           (-30.0 30.0)
           (-30.0 30.0)
  end
  begin
     id 17 
     name lclavicle
     direction 0.982414 0.166355 -0.0847829  
     length 3.57922  
     axis 0 0 0   XYZ
    dof ry rz
    limits (-20.0 10.0)
           (0.0 20.0)
  end
  begin
     id 18 
     name lhumerus
     direction 1 -4.48975e-011 5.47647e-028   
     length 4.76405   
     axis -180 -30 -90   XYZ
    dof rx ry rz
    limits (-60.0 90.0)
           (-90.0 90.0)
           (-90.0 90.0)
  end
  begin
     id 19
     name lradius
     direction 1 -4.48949e-011 -8.32142e-027   
     length 3.13759   
     axis -180 -30 -90   XYZ
    dof rx
    limits (-10.0 170.0)
  end
  begin
     id 20
     name lwrist
     direction 1 -4.48978e-011 -1.32705e-026   
     length 1.56879   
     axis 9.60836e-015 90 90   XYZ
    dof ry
    limits (-180.0 0.0)
 end
  begin
     id 21 
     name lhand
     direction 1 -4.48975e-011 -2.65409e-026   
     length 0.732262   
     axis 1.69354e-014 90 90   XYZ
    dof rx rz
    limits (-90.0 90.0)
           (-45.0 45.0)
  end
  begin
     id 22 
     name lfingers
     direction 1 -4.48923e-011 -5.30819e-026   
     length 0.590368   
     axis 3.38708e-014 90 90   XYZ
    dof rx
    limits (0.0 90.0)
  end
  begin
     id 23
     name lthumb
     direction 0.707107 -6.34914e-011 0.707107   
     length 0.847654   
     axis -90 45 2.85299e-015   XYZ
    dof rx rz
    limits (-45.0 45.0)
           (-45.0 45.0)
  end
  begin
     id 24 
     name rclavicle
     direction -0.963658 0.245183 -0.106063   
     length 3.43472  
     axis 0 0 0   XYZ 
    dof ry rz
    limits (-10.0 20.0)
           (-20.0 0.0)
  end
  begin
     id 25 
     name rhumerus
     direction -1 -4.48963e-011 -1.64784e-027  
     length 5.10161   
     axis -180 30 90   XYZ
    dof rx ry rz
    limits (-90.0 60.0)
           (-90.0 90.0)
           (-90.0 90.0)
  end
  begin
     id 26 
     name rradius
     direction -1 -4.48969e-011 -2.87943e-027   
     length 3.23267   
     axis -180 30 90   XYZ
    dof rx
    limits (-10.0 170.0)
  end
  begin
     id 27 
     name rwrist
     direction -1 -4.48982e-011 -1.32705e-026   
     length 1.61633   
     axis 9.60836e-015 -90 -90   XYZ
    dof ry
    limits (-180.0 0.0)
  end
  begin
     id 28
     name rhand
     direction -1 -4.48963e-011 -2.65409e-026   
     length 0.702   
     axis 1.69354e-014 -90 -90   XYZ
    dof rx rz
    limits (-90.0 90.0)
           (-45.0 45.0)
  end
  begin
     id 29
     name rfingers
     direction -1 -4.48934e-011 -5.30819e-026   
     length 0.565971   
     axis 3.38708e-014 -90 -90   XYZ
    dof rx
    limits (0.0 90.0)
  end
  begin
     id 30
     name rthumb
     direction -0.707107 -6.34908e-011 0.707107   
     length 0.812624   
     axis -90 -45 -2.85299e-015   XYZ
    dof rx rz
    limits (-45.0 45.0)
           (-45.0 45.0)
  end
:hierarchy
  begin
    root lhipjoint rhipjoint lowerback
    lhipjoint lfemur
    lfemur ltibia
    ltibia lfoot
    lfoot ltoes
    rhipjoint rfemur
    rfemur rtibia
    rtibia rfoot
    rfoot rtoes
    lowerback upperback
    upperback thorax
    thorax lowerneck lclavicle rclavicle
    lowerneck upperneck
    upperneck head
    lclavicle lhumerus
    lhumerus lradius
    lradius lwrist
    lwrist lhand lthumb
    lhand lfingers
    rclavicle rhumerus
    rhumerus rradius
    rradius rwrist
    rwrist rhand rthumb
    rhand rfingers
  end

#!OML:ASF \\sashay\E\basketball\basketball\Project 1\Capture day 1\Session 1\Subject.ASF
:FULLY-SPECIFIED
:DEGREES
51
root -19.6445 14.0737 1.55393 31.0003 63.9836 14.2427
lowerback 27.8452 1.06069 1.41468
upperback 11.291 2.66434 3.67289
thorax -2.87943 1.55483 2.41144
lowerneck -8.68157 -3.55613 -9.68802
upperneck -21.0666 -2.45703 8.79541
head -4.6361 -0.638384 4.42585
rclavicle 9.54166e-015 -2.22639e-014
rhumerus 26.7149 -1.94914 -69.5923
rradius 49.4872
rwrist 36.8359
rhand -34.4828 53.122
rfingers 7.12502
rthumb -7.64558 23.2802
lclavicle 9.54166e-015 -2.22639e-014
lhumerus -12.372 -36.0296 82.6655
lradius 63.5654
lwrist 9.5731
lhand -21.6377 23.6717
lfingers 7.12502
lthumb 4.75864 53.5983
rfemur -63.1742 -17.6822 10.9594
rtibia 70.7346
rfoot -17.0922 -15.6019
rtoes -24.3365
lfemur -10.0357 14.9231 -15.7859
ltibia 75.2256
lfoot -2.10174 1.23253
ltoes -39.5453
52
root -19.2589 14.0517 1.69271 29.2915 63.1908 12.4414
lowerback 28.5537 1.38739 2.95392
upperback 11.6885 3.46035 3.21793
thorax -2.67219 2.00643 0.792627
lowerneck -9.28501 -3.83242 -9.15976
upperneck -21.6299 -2.72795 8.78536
head -4.69867 -0.769581 4.33721
rclavicle -3.65764e-014 4.92986e-014
rhumerus 29.3006 -3.61059 -70.3193
rradius 43.1549
rwrist 39.4716
rhand -33.8095 52.1162
rfingers 7.12502
rthumb -6.99566 22.2518
lclavicle -3.65764e-014 4.92986e-014
lhumerus -15.19 -36.6479 82.5398
lradius 60.9184
lwrist 8.75903
lhand -21.1863 23.8874
lfingers 7.12502
lthumb 5.1945 53.8037
rfemur -62.1235 -16.0439 10.3331
rtibia 71.7582
rfoot -19.3234 -14.4452
rtoes -22.4871
lfemur -13.3182 16.3858 -16.5327
ltibia 80.6581
lfoot -2.14153 0.400422
ltoes -36.7689
53
root -18.8829 13.9972 1.8286 27.5704 62.5495 10.7044
lowerback 29.4695 1.56315 3.96601
upperback 11.9459 3.9884 3.15095
thorax -2.72161 2.30155 -0.0367831
lowerneck -9.55329 -3.84623 -9.3683
upperneck -21.965 -2.67596 8.69636
head -4.76723 -0.697893 4.34817
rclavicle 5.24792e-014 -3.33958e-014
rhumerus 31.8504 -4.94206 -70.9427
rradius 37.0664
rwrist 41.9161
rhand -32.4588 49.4042
rfingers 7.12502
rthumb -5.69174 19.5006
lclavicle 5.24792e-014 -3.33958e-014
lhumerus -18.4015 -35.9652 83.1788
lradius 57.7949
lwrist 7.3207
lhand -21.3638 25.2018
lfingers 7.12502
lthumb 5.02312 55.1223
rfemur -60.7976 -14.5407 9.76557
rtibia 72.6327
rfoot -20.784 -14.8332
rtoes -21.7846
lfemur -16.8141 17.6184 -17.2718
ltibia 85.9993
lfoot -2.78754 -0.50526
ltoes -34.6094
54
root -18.5004 13.9624 1.96861 26.0387 62.0837 9.22958
lowerback 30.2018 1.62791 5.02156
upperback 12.3491 4.38612 2.92852
thorax -2.47981 2.55524 -1.01094
lowerneck -9.6502 -3.86361 -9.24643
upperneck -22.4952 -2.63031 8.7271
head -4.92304 -0.660835 4.3489
rclavicle 5.725e-014 4.13472e-014
rhumerus 34.9271 -7.97078 -73.2168
rradius 30.7708
rwrist 45.1658
rhand -29.7522 45.9006
rfingers 7.12502
rthumb -3.07811 15.9431
lclavicle 5.725e-014 4.13472e-014
lhumerus -20.9951 -35.1506 83.2851
lradius 54.3338
lwrist 5.75452
lhand -21.7884 26.0218
lfingers 7.12502
lthumb 4.61308 55.9516
rfemur -58.875 -13.2149 9.28749
rtibia 73.0707
rfoot -21.527 -16.4781
rtoes -24.8017
lfemur -20.3988 18.614 -18.2092
ltibia 90.8595
lfoot -3.96845 -1.15484
ltoes -34.0953
55
root -18.0932 13.9744 2.11064 24.3589 61.936 7.65086
lowerback 30.7769 1.48429 6.49364
upperback 12.8213 4.62595 2.46808
thorax -2.00769 2.77586 -2.42049
lowerneck -9.44088 -3.86493 -8.69888
upperneck -23.2927 -2.54283 9.04555
head -5.21044 -0.656371 4.38176
rclavicle 2.54444e-014 -1.31993e-013
rhumerus 39.1391 -14.2269 -79.2341
rradius 23.9305
rwrist 52.0482
rhand -30.7546 38.9892
rfingers 7.12502
rthumb -4.04612 9.04786
lclavicle 2.54444e-014 -1.31993e-013
lhumerus -23.2541 -34.3996 82.8467
lradius 50.7713
lwrist 4.24089
lhand -22.6049 26.957
lfingers 7.12502
lthumb 3.82462 56.9024
rfemur -56.1753 -12.1561 9.05245
rtibia 72.881
rfoot -22.7318 -17.8868
rtoes -28.6697
lfemur -23.9611 19.3112 -19.2395
ltibia 94.8998
lfoot -4.77956 -1.57156
ltoes -33.9783
56
root -17.6678 14.0124 2.252 22.3956 62.0763 5.73282
lowerback 31.5932 1.59123 7.02957
upperback 13.021 5.02751 3.02814
thorax -2.10858 2.98038 -2.26011
lowerneck -9.30917 -3.69391 -9.33394
upperneck -23.4826 -2.25724 9.06235
head -5.30975 -0.455452 4.50211
rclavicle 7.95139e-014 7.4743e-014
rhumerus 45.6888 -23.2919 -89.4293
rradius 17.5027
rwrist 59.259
rhand -27.9647 30.9492
rfingers 7.12502
rthumb -1.35183 0.973715
lclavicle 7.95139e-014 7.4743e-014
lhumerus -26.2951 -32.4137 84.2196
lradius 47.2377
lwrist 2.8884
lhand -22.685 27.8505
lfingers 7.12502
lthumb 3.74733 57.7973
rfemur -53.0825 -11.4694 9.12294
rtibia 72.288
rfoot -25.4544 -17.4265
rtoes -28.6673
lfemur -27.677 19.851 -20.2591
ltibia 98.2619
lfoot -5.12491 -1.59937
ltoes -33.0279
57
root -17.243 14.0303 2.3931 20.3744 62.4248 3.562
lowerback 32.1353 1.54346 7.38258
upperback 13.1614 5.18423 3.73706
thorax -2.20931 3.05061 -1.74628
lowerneck -9.03948 -3.49781 -10.8139
upperneck -23.5732 -1.81661 9.75855
head -5.38802 -0.1539 4.99019
rclavicle -2.06736e-014 -6.36111e-014
rhumerus 68.7215 -39.8214 -125.281
rradius 11.236
rwrist 82.5847
rhand -24.2869 27.1479
rfingers 7.12502
rthumb 2.20028 -2.82046
lclavicle -2.06736e-014 -6.36111e-014
lhumerus -29.68 -29.6793 85.6446
lradius 44.3636
lwrist 2.58848
lhand -23.3232 29.7578
lfingers 7.12502
lthumb 3.13094 59.7146
rfemur -50.0167 -11.2883 9.70785
rtibia 71.1788
rfoot -25.8326 -19.5592
rtoes -34.1996
lfemur -31.8776 20.3562 -21.3338
ltibia 101.289
lfoot -5.60748 -1.41769
ltoes -32.139
58
root -16.8183 14.0377 2.53774 18.6178 62.9434 1.39679
lowerback 31.9454 1.49695 8.97506
upperback 13.48 5.53484 3.44649
thorax -1.51422 3.34013 -3.02262
lowerneck -9.7881 -3.63814 -9.43012
upperneck -23.6525 -1.8815 10.1166
head -5.28727 -0.285903 4.86064
rclavicle -1.09729e-013 -4.45278e-014
rhumerus 105.852 -39.3236 -177.925
rradius 10.3072
rwrist 106.011
rhand -25.911 31.286
rfingers 7.12502
rthumb 0.631731 1.30722
lclavicle -1.09729e-013 -4.45278e-014
lhumerus -32.308 -29.8717 85.232
lradius 42.5563
lwrist 4.95813
lhand -23.4188 30.9107
lfingers 7.12502
lthumb 3.03867 60.8688
rfemur -47.2933 -11.4888 10.4621
rtibia 70.0457
rfoot -25.762 -21.494
rtoes -38.1317
lfemur -36.5545 20.6358 -22.7441
ltibia 103.856
lfoot -6.19146 -0.91521
ltoes -32.5478
59
root -16.398 14.0287 2.69138 17.131 63.5943 -0.701568
lowerback 31.9684 1.853 8.83328
upperback 13.3399 6.01677 4.40487
thorax -1.77336 3.51378 -2.04285
lowerneck -10.0557 -3.36987 -10.3738
upperneck -22.4386 -1.54287 10.0868
head -4.88984 -0.0599975 4.97763
rclavicle 4.13472e-014 6.99722e-014
rhumerus 104.9 -40.8556 -174.838
rradius 11.4043
rwrist 86.6048
rhand -23.6015 33.416
rfingers 7.12502
rthumb 2.8622 3.45542
lclavicle 4.13472e-014 6.99722e-014
lhumerus -36.4455 -28.2283 87.0496
lradius 41.7582
lwrist 8.0663
lhand -22.7027 32.392
lfingers 7.12502
lthumb 3.73018 62.3391
rfemur -44.7652 -11.5783 10.961
rtibia 68.6544
rfoot -26.0537 -22.3732
rtoes -40.1158
lfemur -41.6635 20.5591 -24.5161
ltibia 105.907
lfoot -7.06201 -0.224035
ltoes -30.0128
